# xmcd CD database file
#
# Track frame offsets:
#	150
#	27095
#	55245
#	72765
#	100390
#	133990
#	163360
#	184825
#	207555
#
# Disc length: 3268 seconds
#
# Revision: 2
# Processed by: cddbd v1.5.2PL0 Copyright (c) Steve Scherf et al.
# Submitted via: CDex 1.51
#
DISCID=890cc209
DTITLE=Martin Sasse, Christian von Kaphengst, Jürgen Kutschke feat. Tony Lakatos - Feel Allright!
DYEAR=1996
DGENRE=Jazz
TTITLE0=Decision   (Martin Sasse)
TTITLE1=Tune In Three   (Tony Lakatos)
TTITLE2=Fast Food   (Tony Lakatos)
TTITLE3=Twelve Bars But Not Blues   (Tony Lakatos)
TTITLE4=Mr. K.   (Martin Sasse)
TTITLE5=Feel Allright!   (Martin Sasse)
TTITLE6=Between The Lines   (M. Loewenthal)
TTITLE7=Spring Is Here   (R. Rodger - L. Hart)
TTITLE8=Misty   (E. Garner)
EXTD=YEAR: 1996
EXTT0=
EXTT1=
EXTT2=
EXTT3=
EXTT4=
EXTT5=
EXTT6=
EXTT7=
EXTT8=
PLAYORDER=
